<?xml version="1.0" standalone="no"?>
<!DOCTYPE svg PUBLIC "-//W3C//DTD SVG 20010904//EN"
 "http://www.w3.org/TR/2001/REC-SVG-20010904/DTD/svg10.dtd">
<svg version="1.0" xmlns="http://www.w3.org/2000/svg"
 viewBox="0 0 640 640"
 preserveAspectRatio="xMidYMid meet">
<rect width="100%" height="100%" fill="transparent" />
<g transform="translate(0.000000,640.000000) scale(0.100000,-0.100000)"
fill="currentColor" stroke="none">
<path d="M3237 4037 c-76 -49 -97 -67 -97 -85 0 -14 8 -26 24 -31 13 -5 26
-17 30 -26 8 -21 8 -472 0 -503 -4 -12 -19 -29 -35 -38 -32 -16 -40 -58 -13
-68 9 -3 74 -6 144 -6 119 0 130 2 140 20 8 15 6 24 -10 40 -11 11 -24 20 -29
20 -34 0 -44 238 -13 300 14 29 23 36 54 38 29 3 40 -1 51 -20 18 -28 65 -191
74 -255 6 -43 4 -47 -28 -74 -28 -23 -32 -31 -23 -46 10 -16 27 -18 155 -18
134 0 144 1 147 19 3 13 -9 30 -33 50 -34 29 -39 41 -77 181 -60 226 -89 272
-180 282 -44 5 -117 -21 -133 -47 -19 -31 -25 4 -25 149 0 116 -3 161 -13 169
-9 8 -38 -5 -110 -51z"/>
<path d="M1244 4080 c-30 -12 -38 -39 -18 -61 10 -11 22 -19 29 -19 7 0 19 -8
28 -18 15 -16 17 -52 17 -300 0 -269 -1 -283 -20 -302 -11 -11 -24 -20 -29
-20 -12 0 -41 -29 -41 -40 0 -5 7 -16 16 -24 23 -24 255 -23 279 0 9 9 14 23
11 31 -3 8 -6 16 -6 19 0 2 -15 10 -34 18 -32 13 -35 19 -41 68 -3 29 -5 132
-3 228 2 146 5 175 18 177 13 3 379 -373 418 -429 8 -11 17 -43 21 -71 l6 -52
58 -3 c31 -2 57 1 58 5 0 4 2 157 4 338 1 182 5 337 9 346 4 9 21 22 39 30 44
19 51 64 12 79 -35 13 -221 13 -246 0 -27 -15 -24 -47 9 -67 15 -9 33 -23 40
-32 16 -19 17 -231 1 -231 -6 0 -86 72 -177 161 -92 89 -177 165 -190 170 -29
11 -240 11 -268 -1z"/>
<path d="M2295 4045 c-5 -2 -22 -6 -37 -9 -43 -10 -88 -54 -88 -86 0 -61 51
-74 135 -34 69 32 84 97 30 122 -14 7 -27 12 -28 11 -1 0 -6 -2 -12 -4z"/>
<path d="M4378 4036 c-81 -29 -113 -70 -89 -115 23 -43 101 -35 161 16 69 58
16 130 -72 99z"/>
<path d="M3961 3964 c-19 -25 -67 -82 -108 -126 -82 -87 -89 -111 -33 -116 63
-6 64 -8 57 -199 l-6 -172 30 -25 c75 -63 223 -60 303 6 25 21 36 37 34 52 -4
26 -40 33 -71 13 -40 -26 -73 -28 -98 -8 -23 18 -24 24 -24 172 l0 154 78 3
c69 3 79 5 93 27 32 48 18 59 -81 65 l-90 5 -5 95 c-5 86 -7 95 -25 98 -15 2
-30 -10 -54 -44z"/>
<path d="M2910 3958 c-36 -18 -51 -35 -74 -80 -28 -55 -31 -58 -66 -58 -95 0
-214 -61 -245 -126 -27 -57 -17 -136 23 -177 l31 -32 -48 -42 c-27 -23 -51
-50 -53 -60 -8 -31 9 -61 44 -79 l33 -17 -25 -16 c-67 -44 -77 -81 -32 -124
88 -84 414 -103 552 -32 63 32 90 125 53 181 -29 45 -85 64 -246 85 -173 23
-217 34 -217 56 0 13 12 14 83 9 195 -16 325 53 334 177 6 77 -24 123 -104
162 -35 17 -63 35 -63 42 0 22 35 33 74 22 45 -12 72 -5 92 27 24 36 3 80 -45
94 -49 13 -50 13 -101 -12z m-83 -213 c49 -34 53 -166 7 -212 -66 -66 -144 12
-131 130 10 83 68 121 124 82z m-33 -515 c138 -20 161 -32 123 -64 -19 -16
-34 -18 -122 -13 -114 5 -175 25 -175 56 0 17 23 40 40 40 3 1 63 -8 134 -19z"/>
<path d="M2246 3785 c-44 -19 -86 -41 -93 -48 -18 -18 -8 -42 23 -55 24 -11
24 -13 24 -152 l0 -141 -37 -34 c-32 -29 -36 -38 -27 -52 9 -15 30 -18 135
-21 68 -1 134 0 147 3 32 8 28 39 -10 69 l-33 25 -5 218 c-6 256 2 244 -124
188z"/>
<path d="M4348 3778 c-97 -45 -106 -61 -58 -96 l30 -23 0 -112 c0 -112 -12
-187 -30 -187 -6 0 -19 -9 -30 -20 -16 -16 -18 -25 -10 -40 10 -18 21 -20 150
-20 129 0 140 1 150 20 9 17 5 25 -27 55 l-38 35 -3 215 c-4 253 6 239 -134
173z"/>
<path d="M4800 3811 c-127 -39 -209 -143 -210 -265 0 -88 18 -134 75 -193 40
-41 62 -55 110 -68 71 -21 187 -16 255 11 85 33 166 107 153 140 -7 19 -48 18
-63 -2 -8 -8 -33 -27 -57 -41 -38 -22 -52 -25 -110 -21 -62 4 -68 6 -104 46
-22 23 -39 45 -39 50 0 5 24 20 53 32 147 62 277 124 277 132 0 24 -44 90 -81
121 -67 58 -178 83 -259 58z m80 -86 c27 -14 70 -79 70 -105 0 -11 -143 -80
-165 -80 -32 0 -45 111 -20 160 22 43 63 52 115 25z"/>
<path d="M1883 3133 c-20 -13 -35 -13 -127 -2 -176 21 -285 -13 -327 -104 -49
-110 5 -214 149 -285 31 -16 117 -52 189 -81 102 -41 140 -61 163 -87 47 -54
40 -100 -18 -136 -31 -19 -50 -23 -117 -22 -132 2 -246 41 -364 125 -58 42
-88 49 -98 23 -6 -17 76 -197 110 -240 23 -30 54 -30 84 -2 l24 22 87 -19
c197 -41 364 -29 455 33 107 72 128 246 43 356 -36 47 -118 91 -290 155 -202
76 -231 102 -168 151 46 37 113 24 263 -53 94 -49 130 -62 142 -55 9 5 17 15
17 22 0 7 -34 58 -76 114 -80 108 -96 117 -141 85z"/>
<path d="M3795 3079 c-131 -59 -141 -72 -80 -108 35 -20 35 -21 35 -91 l0 -71
-32 18 c-50 27 -180 25 -234 -4 -103 -55 -160 -167 -152 -299 7 -99 41 -156
118 -197 49 -25 63 -28 126 -25 59 3 80 9 123 36 29 17 54 32 57 32 2 0 4 -13
4 -29 0 -17 5 -33 10 -36 15 -9 187 16 206 30 21 15 11 52 -17 60 -11 4 -24
18 -30 32 -5 13 -9 166 -9 339 0 295 -5 355 -28 353 -4 0 -47 -18 -97 -40z
m-90 -339 c33 -31 48 -96 43 -190 -3 -75 -6 -84 -31 -106 -53 -46 -144 -22
-187 48 -67 109 -39 252 53 276 42 11 93 -1 122 -28z"/>
<path d="M4147 3068 c-53 -14 -99 -60 -95 -95 5 -42 45 -60 96 -45 58 18 102
57 102 92 0 46 -40 64 -103 48z"/>
<path d="M2348 2958 c-37 -46 -85 -101 -107 -123 -25 -23 -41 -48 -41 -62 0
-20 5 -23 40 -23 58 0 64 -20 56 -213 l-7 -157 26 -24 c55 -51 176 -59 268
-18 50 22 81 60 71 86 -8 21 -32 20 -87 -4 -58 -26 -91 -16 -101 30 -3 18 -6
93 -6 166 l0 134 80 0 c86 0 100 9 100 64 0 26 0 26 -90 26 l-90 0 0 84 c0 46
-3 91 -6 100 -13 33 -42 14 -106 -66z"/>
<path d="M4559 2845 c-57 -18 -133 -84 -161 -139 -29 -57 -36 -167 -14 -234
24 -70 94 -135 172 -158 79 -23 220 -16 289 15 59 26 121 83 141 130 22 53 18
157 -10 216 -28 60 -99 128 -164 157 -61 27 -189 34 -253 13z m110 -69 c101
-53 188 -247 151 -337 -16 -37 -67 -62 -108 -53 -130 31 -236 305 -147 381 30
26 64 29 104 9z"/>
<path d="M2780 2826 c-95 -39 -120 -55 -120 -76 0 -12 12 -26 30 -35 25 -13
30 -22 31 -53 2 -126 18 -271 33 -303 22 -48 62 -69 128 -69 44 0 65 6 112 35
32 19 60 35 62 35 2 0 4 -11 4 -24 0 -31 15 -36 111 -36 122 0 147 23 87 79
l-33 31 -5 211 c-4 176 -8 214 -20 222 -12 7 -42 -3 -113 -36 -77 -36 -97 -50
-97 -67 0 -13 10 -24 27 -31 15 -6 31 -16 35 -22 4 -7 8 -54 8 -105 0 -136
-25 -182 -99 -182 -55 0 -64 28 -75 239 -6 102 -15 192 -19 199 -11 16 -23 15
-87 -12z"/>
<path d="M4120 2810 c-98 -45 -109 -65 -60 -100 l32 -23 -4 -134 -3 -133 -38
-35 c-32 -30 -36 -38 -27 -55 10 -19 21 -20 150 -20 129 0 140 2 150 20 11 21
-3 41 -46 66 -18 10 -19 27 -22 233 -4 259 6 246 -132 181z"/>
</g>
</svg>
